<svg xmlns="http://www.w3.org/2000/svg" viewBox="0 0 500 500"><g id="freepik--background-simple--inject-170"><path d="M418.13,102.71S327.86,8.54,255.36,10.05-2.17,198.86,6.89,275.89,156.42,458.66,227.42,481.32,460.78,362.74,485.7,263.81,418.13,102.71,418.13,102.71Z" style="fill:#92E3A9"></path><path d="M418.13,102.71S327.86,8.54,255.36,10.05-2.17,198.86,6.89,275.89,156.42,458.66,227.42,481.32,460.78,362.74,485.7,263.81,418.13,102.71,418.13,102.71Z" style="fill:#fff;opacity:0.7000000000000001"></path></g><g id="freepik--Floor--inject-170"><line x1="14.47" y1="377.99" x2="486.46" y2="377.99" style="fill:none;stroke:#263238;stroke-miterlimit:10"></line></g><g id="freepik--aloe-product--inject-170"><rect x="195.74" y="194.99" width="111.65" height="7.7" style="fill:#fff;stroke:#263238;stroke-miterlimit:10"></rect><path d="M280.75,449.51l-1.2.16a222.93,222.93,0,0,1-58.73-.14h0a4.52,4.52,0,0,1-3.9-4.47V411h67.76V445A4.51,4.51,0,0,1,280.75,449.51Z" style="fill:#263238;stroke:#263238;stroke-miterlimit:10"></path><path d="M195.74,202.69s9.24,103.19,15,135.53,3.08,67,4.23,70.84l1.16,3.85s37.73,9.63,70.07,0L307.4,202.69Z" style="fill:#fff;stroke:#263238;stroke-miterlimit:10"></path><path d="M211,287.42l2.65,61.32-.73,4.53c2.92,27.27,1.15,52.54,2.12,55.79l1.16,3.85s2.3.59,6.23,1.33Z" style="fill:#92E3A9;stroke:#263238;stroke-miterlimit:10"></path><path d="M257.27,417.14a129.68,129.68,0,0,0,13.14-1l3.75-71.61Z" style="fill:#92E3A9;stroke:#263238;stroke-miterlimit:10"></path><path d="M256,417.17,247.28,312.4,234.64,416.07A167.37,167.37,0,0,0,256,417.17Z" style="fill:#92E3A9;stroke:#263238;stroke-miterlimit:10"></path><path d="M233.43,415.93l-8.1-68.33-2,66.8C226,414.9,229.48,415.45,233.43,415.93Z" style="fill:#92E3A9;stroke:#263238;stroke-miterlimit:10"></path><path d="M293.84,290.83,271.43,416a98.83,98.83,0,0,0,14.79-3.13l4.38-43.42Z" style="fill:#92E3A9;stroke:#263238;stroke-miterlimit:10"></path><path d="M289.27,382.69H214.58c.14,7.72.07,14.31.08,19h72.69Z" style="fill:#263238"></path><circle cx="230.17" cy="304.65" r="4.53" style="fill:#263238;stroke:#263238;stroke-miterlimit:10"></circle><path d="M234.7,302.69a4.53,4.53,0,1,1-4.53-4.53A4.53,4.53,0,0,1,234.7,302.69Z" style="fill:#fff;stroke:#263238;stroke-miterlimit:10"></path><path d="M284.88,332.94a4.53,4.53,0,1,1-4.53-4.54A4.53,4.53,0,0,1,284.88,332.94Z" style="fill:#263238;stroke:#263238;stroke-miterlimit:10"></path><path d="M284.88,331a4.53,4.53,0,1,1-4.53-4.53A4.53,4.53,0,0,1,284.88,331Z" style="fill:#fff;stroke:#263238;stroke-miterlimit:10"></path><path d="M290.68,248a2.27,2.27,0,1,1-2.26-2.27A2.26,2.26,0,0,1,290.68,248Z" style="fill:#263238;stroke:#263238;stroke-miterlimit:10"></path><path d="M290.68,247a2.27,2.27,0,1,1-2.26-2.27A2.26,2.26,0,0,1,290.68,247Z" style="fill:#fff;stroke:#263238;stroke-miterlimit:10"></path><path d="M207.9,212.43a2.27,2.27,0,1,1-2.26-2.27A2.27,2.27,0,0,1,207.9,212.43Z" style="fill:#263238;stroke:#263238;stroke-miterlimit:10"></path><path d="M207.9,211.45a2.27,2.27,0,1,1-2.26-2.26A2.27,2.27,0,0,1,207.9,211.45Z" style="fill:#fff;stroke:#263238;stroke-miterlimit:10"></path><path d="M263.47,346.11a2.27,2.27,0,1,1-2.27-2.26A2.27,2.27,0,0,1,263.47,346.11Z" style="fill:#263238;stroke:#263238;stroke-miterlimit:10"></path><path d="M263.47,345.13a2.27,2.27,0,1,1-2.27-2.26A2.27,2.27,0,0,1,263.47,345.13Z" style="fill:#fff;stroke:#263238;stroke-miterlimit:10"></path><path d="M277.4,300a2.27,2.27,0,1,1-2.27-2.27A2.27,2.27,0,0,1,277.4,300Z" style="fill:#263238;stroke:#263238;stroke-miterlimit:10"></path><path d="M277.4,299a2.27,2.27,0,1,1-2.27-2.27A2.27,2.27,0,0,1,277.4,299Z" style="fill:#fff;stroke:#263238;stroke-miterlimit:10"></path><path d="M210.76,230.31l3.74-17.69h1.74L220,230.31h-1.64l-.87-4.74h-4.22l-.89,4.74Zm2.76-5.94h3.75l-1.9-9.55Z" style="fill:#263238"></path><path d="M222.14,230.31V212.62h1.66v16.44h5v1.25Z" style="fill:#263238"></path><path d="M234.59,230.52a4.8,4.8,0,0,1-2.74-.68,3.65,3.65,0,0,1-1.4-1.93,9,9,0,0,1-.4-2.82v-7.34a8.48,8.48,0,0,1,.42-2.81,3.61,3.61,0,0,1,1.42-1.84,4.81,4.81,0,0,1,2.7-.66,4.89,4.89,0,0,1,2.72.66,3.54,3.54,0,0,1,1.41,1.84,8.76,8.76,0,0,1,.41,2.81v7.36a9,9,0,0,1-.4,2.82,3.67,3.67,0,0,1-1.39,1.91A4.82,4.82,0,0,1,234.59,230.52Zm0-1.33a2.87,2.87,0,0,0,1.79-.47,2.35,2.35,0,0,0,.84-1.31,7.56,7.56,0,0,0,.23-1.95v-8a7.43,7.43,0,0,0-.23-1.94,2.27,2.27,0,0,0-.84-1.28,3.77,3.77,0,0,0-3.57,0,2.23,2.23,0,0,0-.85,1.28,7,7,0,0,0-.23,1.94v8a7.15,7.15,0,0,0,.23,1.95,2.31,2.31,0,0,0,.85,1.31A2.86,2.86,0,0,0,234.59,229.19Z" style="fill:#263238"></path><path d="M241.86,230.31V212.62h6.4v1.29h-4.72v6.63h3.85v1.23h-3.85v7.29h4.76v1.25Z" style="fill:#263238"></path><path d="M258.15,230.31,254,212.62h1.6l3.34,14.65,3.14-14.65h1.57l-4,17.69Z" style="fill:#263238"></path><path d="M265.69,230.31V212.62h6.39v1.29h-4.71v6.63h3.84v1.23h-3.84v7.29h4.76v1.25Z" style="fill:#263238"></path><path d="M274.4,230.31V212.62h4a5.41,5.41,0,0,1,2.61.53,3.09,3.09,0,0,1,1.37,1.55,6.32,6.32,0,0,1,.41,2.42,7.88,7.88,0,0,1-.21,1.85,3.68,3.68,0,0,1-.75,1.49,2.58,2.58,0,0,1-1.48.8l2.71,9.05h-1.62l-2.6-8.7h-2.77v8.7Zm1.66-9.92h2.25A3.3,3.3,0,0,0,280,220a2.08,2.08,0,0,0,.88-1.09,5.5,5.5,0,0,0,.26-1.81,4.26,4.26,0,0,0-.57-2.45,2.6,2.6,0,0,0-2.25-.81h-2.29Z" style="fill:#263238"></path><path d="M284.62,230.31l3.73-17.69h1.75l3.76,17.69h-1.64l-.88-4.74h-4.21l-.9,4.74Zm2.75-5.94h3.76l-1.9-9.55Z" style="fill:#263238"></path><path d="M236.61,270.8a8.07,8.07,0,0,1-4.78-1.26,6.88,6.88,0,0,1-2.52-3.61,17.5,17.5,0,0,1-.76-5.43v-10a17.61,17.61,0,0,1,.77-5.51,6.58,6.58,0,0,1,2.71-3.57,9.49,9.49,0,0,1,5.24-1.25,10.21,10.21,0,0,1,5.06,1.06,6.13,6.13,0,0,1,2.67,3,12.07,12.07,0,0,1,.81,4.64v1.73h-5.93v-2.1a14.08,14.08,0,0,0-.14-2.08,2.53,2.53,0,0,0-.68-1.42,2.44,2.44,0,0,0-1.72-.51,2.27,2.27,0,0,0-1.76.62,3.05,3.05,0,0,0-.7,1.6,13.75,13.75,0,0,0-.15,2.08v13.21a10.83,10.83,0,0,0,.22,2.24,2.9,2.9,0,0,0,.83,1.55,2.52,2.52,0,0,0,1.75.55,2.46,2.46,0,0,0,1.76-.59,3.07,3.07,0,0,0,.87-1.6,10,10,0,0,0,.24-2.3v-3.16h-2.91v-3.68h8.39v15.3h-4l-.37-2.68a5.46,5.46,0,0,1-1.77,2.24A5.13,5.13,0,0,1,236.61,270.8Z" style="fill:#263238"></path><path d="M250,270.36v-29.8h13v4.2h-6.91v7.91h5.33v4.23h-5.33v9.34h7v4.12Z" style="fill:#263238"></path><path d="M266.15,270.36v-29.8h6.07v25.68h7v4.12Z" style="fill:#263238"></path></g></svg>
